<svg width="128" height="128" viewBox="0 0 128 128" xmlns="http://www.w3.org/2000/svg">
  <defs>
    <linearGradient id="grad1" x1="0%" y1="0%" x2="100%" y2="100%">
      <stop offset="0%" style="stop-color:#667eea;stop-opacity:1" />
      <stop offset="100%" style="stop-color:#764ba2;stop-opacity:1" />
    </linearGradient>
  </defs>
  
  <!-- Background circle -->
  <circle cx="64" cy="64" r="60" fill="url(#grad1)" stroke="#fff" stroke-width="4"/>
  
  <!-- Document icon -->
  <rect x="40" y="30" width="48" height="60" rx="4" fill="#fff" opacity="0.9"/>
  
  <!-- Text lines -->
  <rect x="45" y="40" width="38" height="3" rx="1.5" fill="#667eea"/>
  <rect x="45" y="48" width="30" height="3" rx="1.5" fill="#667eea"/>
  <rect x="45" y="56" width="35" height="3" rx="1.5" fill="#667eea"/>
  <rect x="45" y="64" width="25" height="3" rx="1.5" fill="#667eea"/>
  <rect x="45" y="72" width="32" height="3" rx="1.5" fill="#667eea"/>
  
  <!-- Magic wand -->
  <path d="M75 20 L85 30 L80 35 L70 25 Z" fill="#fff"/>
  <circle cx="82" cy="32" r="2" fill="#fff"/>
  
  <!-- Sparkles -->
  <circle cx="30" cy="40" r="2" fill="#fff" opacity="0.8"/>
  <circle cx="95" cy="50" r="1.5" fill="#fff" opacity="0.6"/>
  <circle cx="25" cy="70" r="1" fill="#fff" opacity="0.7"/>
  <circle cx="100" cy="75" r="1.5" fill="#fff" opacity="0.5"/>
</svg>
